<svg width="365" height="82" viewBox="0 0 365 82" fill="none" xmlns="http://www.w3.org/2000/svg">
<path d="M37.0949 0.919874C38.2751 -0.306625 40.2389 -0.306625 41.4191 0.919874L77.6701 38.5937C79.5036 40.4996 78.1528 43.6738 75.508 43.6738H68.425V74.6738C68.4248 76.3305 67.0817 77.6738 65.425 77.6738H13.425C11.7683 77.6738 10.4252 76.3305 10.425 74.6738V43.6738H3.00605C0.361208 43.6738 -0.989595 40.4996 0.843941 38.5937L37.0949 0.919874ZM49.4006 30C45.5726 30 41.8982 31.7655 39.5002 34.5556C37.1022 31.7655 33.4277 30 29.5998 30C22.824 30.0002 17.5002 35.2754 17.5002 41.9892C17.5003 50.2289 24.9798 56.9432 36.3098 67.123L39.5002 70L42.6906 67.1445C54.0204 56.943 61.5001 50.2289 61.5002 41.9892C61.5002 35.2754 56.1764 30.0002 49.4006 30Z" fill="white"/>
<path d="M111.473 60V20.543H118.527V36.9492H137.723V20.543H144.75V60H137.723V42.8828H118.527V60H111.473ZM162.063 60.5742C159.22 60.5742 156.749 59.9727 154.653 58.7695C152.557 57.5482 150.925 55.8164 149.759 53.5742C148.61 51.3138 148.036 48.625 148.036 45.5078V45.4531C148.036 42.3542 148.619 39.6836 149.786 37.4414C150.953 35.181 152.584 33.4492 154.68 32.2461C156.777 31.0247 159.229 30.4141 162.036 30.4141C164.861 30.4141 167.322 31.0247 169.419 32.2461C171.533 33.4492 173.174 35.1719 174.341 37.4141C175.507 39.6562 176.091 42.3359 176.091 45.4531V45.5078C176.091 48.6432 175.507 51.3411 174.341 53.6016C173.192 55.8438 171.57 57.5664 169.473 58.7695C167.377 59.9727 164.907 60.5742 162.063 60.5742ZM162.091 55.0781C163.531 55.0781 164.779 54.7044 165.837 53.957C166.894 53.2096 167.705 52.125 168.27 50.7031C168.854 49.263 169.145 47.5312 169.145 45.5078V45.4531C169.145 43.4479 168.854 41.7344 168.27 40.3125C167.687 38.8906 166.858 37.806 165.782 37.0586C164.725 36.3112 163.476 35.9375 162.036 35.9375C160.632 35.9375 159.393 36.3112 158.317 37.0586C157.26 37.806 156.43 38.8906 155.829 40.3125C155.246 41.7344 154.954 43.4479 154.954 45.4531V45.5078C154.954 47.5312 155.246 49.263 155.829 50.7031C156.43 52.125 157.26 53.2096 158.317 53.957C159.393 54.7044 160.651 55.0781 162.091 55.0781ZM178.666 60V31.0156H185.447V35.6641H185.611C186.213 34.0781 187.224 32.8112 188.646 31.8633C190.068 30.8971 191.736 30.4141 193.65 30.4141C194.999 30.4141 196.211 30.651 197.287 31.125C198.362 31.5807 199.274 32.2461 200.021 33.1211C200.787 33.9779 201.343 35.026 201.689 36.2656H201.826C202.3 35.0625 202.974 34.0326 203.849 33.1758C204.742 32.3008 205.782 31.6263 206.966 31.1523C208.17 30.6602 209.464 30.4141 210.849 30.4141C212.763 30.4141 214.422 30.8242 215.826 31.6445C217.248 32.4466 218.351 33.5768 219.134 35.0352C219.936 36.4753 220.338 38.1706 220.338 40.1211V60H213.529V41.7891C213.529 40.5859 213.328 39.5651 212.927 38.7266C212.526 37.888 211.943 37.25 211.177 36.8125C210.412 36.375 209.464 36.1562 208.334 36.1562C207.24 36.1562 206.274 36.4115 205.435 36.9219C204.615 37.4141 203.968 38.1068 203.494 39C203.038 39.8932 202.81 40.9232 202.81 42.0898V60H196.193V41.4336C196.193 40.3398 195.983 39.401 195.564 38.6172C195.145 37.8333 194.552 37.2318 193.787 36.8125C193.021 36.375 192.11 36.1562 191.052 36.1562C189.959 36.1562 188.992 36.4206 188.154 36.9492C187.315 37.4779 186.65 38.1979 186.158 39.1094C185.684 40.0208 185.447 41.069 185.447 42.2539V60H178.666ZM236.748 60.5742C233.85 60.5742 231.353 59.9635 229.256 58.7422C227.178 57.5208 225.583 55.7891 224.471 53.5469C223.359 51.3047 222.803 48.6523 222.803 45.5898V45.5625C222.803 42.5182 223.359 39.8659 224.471 37.6055C225.601 35.3268 227.178 33.5586 229.202 32.3008C231.243 31.043 233.649 30.4141 236.42 30.4141C239.173 30.4141 241.552 31.0247 243.557 32.2461C245.58 33.4492 247.13 35.1445 248.205 37.332C249.299 39.5195 249.846 42.0716 249.846 44.9883V47.1758H226.166V42.6367H246.592L243.311 46.875V44.25C243.311 42.3542 243.019 40.7773 242.436 39.5195C241.853 38.2617 241.051 37.3229 240.03 36.7031C239.009 36.0651 237.833 35.7461 236.502 35.7461C235.153 35.7461 233.95 36.0742 232.893 36.7305C231.854 37.3685 231.034 38.3255 230.432 39.6016C229.849 40.8776 229.557 42.4271 229.557 44.25V46.875C229.557 48.6432 229.849 50.1562 230.432 51.4141C231.034 52.6536 231.881 53.6107 232.975 54.2852C234.069 54.9414 235.372 55.2695 236.885 55.2695C238.015 55.2695 239.009 55.0964 239.866 54.75C240.722 54.3854 241.424 53.9206 241.971 53.3555C242.536 52.7904 242.928 52.1797 243.147 51.5234L243.202 51.332H249.545L249.491 51.6328C249.254 52.7448 248.816 53.8385 248.178 54.9141C247.54 55.9714 246.683 56.9284 245.608 57.7852C244.532 58.6419 243.256 59.3255 241.78 59.8359C240.303 60.3281 238.626 60.5742 236.748 60.5742ZM268.554 60.5742C267.168 60.5742 265.892 60.3555 264.726 59.918C263.577 59.4622 262.566 58.8333 261.691 58.0312C260.816 57.2109 260.096 56.2266 259.53 55.0781H259.394V60H252.585V20.543H259.394V35.9922H259.53C260.096 34.8255 260.825 33.832 261.718 33.0117C262.611 32.1732 263.641 31.5352 264.808 31.0977C265.974 30.6419 267.241 30.4141 268.609 30.4141C271.033 30.4141 273.139 31.0247 274.925 32.2461C276.711 33.4492 278.097 35.181 279.081 37.4414C280.066 39.6836 280.558 42.3633 280.558 45.4805V45.5078C280.558 48.6068 280.066 51.2865 279.081 53.5469C278.115 55.8073 276.73 57.5482 274.925 58.7695C273.139 59.9727 271.015 60.5742 268.554 60.5742ZM266.53 54.8594C267.989 54.8594 269.247 54.4857 270.304 53.7383C271.379 52.9727 272.2 51.888 272.765 50.4844C273.33 49.0807 273.613 47.4219 273.613 45.5078V45.4805C273.613 43.5482 273.321 41.8893 272.738 40.5039C272.172 39.1185 271.361 38.0521 270.304 37.3047C269.247 36.5391 267.989 36.1562 266.53 36.1562C265.127 36.1562 263.887 36.5391 262.812 37.3047C261.754 38.0703 260.916 39.1549 260.296 40.5586C259.676 41.944 259.366 43.5846 259.366 45.4805V45.5078C259.366 47.4036 259.667 49.0534 260.269 50.457C260.889 51.8607 261.736 52.9453 262.812 53.7109C263.887 54.4766 265.127 54.8594 266.53 54.8594ZM291.691 60.4922C289.777 60.4922 288.082 60.1276 286.605 59.3984C285.147 58.651 284.008 57.6211 283.188 56.3086C282.385 54.9779 281.984 53.4557 281.984 51.7422V51.6875C281.984 49.9557 282.413 48.4792 283.27 47.2578C284.145 46.0182 285.402 45.043 287.043 44.332C288.684 43.6029 290.671 43.1654 293.004 43.0195L304.078 42.3359V46.8477L293.961 47.4766C292.284 47.5859 290.999 47.987 290.105 48.6797C289.212 49.3724 288.766 50.293 288.766 51.4414V51.4688C288.766 52.6536 289.212 53.5924 290.105 54.2852C291.017 54.9596 292.22 55.2969 293.715 55.2969C295.027 55.2969 296.194 55.0326 297.215 54.5039C298.254 53.9753 299.074 53.2552 299.676 52.3438C300.277 51.4323 300.578 50.4023 300.578 49.2539V40.5586C300.578 39.1003 300.113 37.9518 299.184 37.1133C298.272 36.2565 296.951 35.8281 295.219 35.8281C293.615 35.8281 292.329 36.1745 291.363 36.8672C290.397 37.5417 289.796 38.4167 289.559 39.4922L289.504 39.7383H283.215L283.242 39.4102C283.388 37.6966 283.962 36.1654 284.965 34.8164C285.967 33.4492 287.353 32.3737 289.121 31.5898C290.908 30.806 293.022 30.4141 295.465 30.4141C297.889 30.4141 299.986 30.8151 301.754 31.6172C303.54 32.4193 304.917 33.5404 305.883 34.9805C306.867 36.4206 307.359 38.1159 307.359 40.0664V60H300.578V55.543H300.414C299.867 56.5456 299.156 57.4206 298.281 58.168C297.406 58.9154 296.404 59.4896 295.273 59.8906C294.161 60.2917 292.967 60.4922 291.691 60.4922ZM322.403 60.5742C319.869 60.5742 317.7 60.2005 315.895 59.4531C314.109 58.7057 312.705 57.6576 311.684 56.3086C310.682 54.9414 310.071 53.3646 309.852 51.5781L309.825 51.332H316.524L316.579 51.5781C316.834 52.8359 317.436 53.8112 318.384 54.5039C319.35 55.1966 320.699 55.543 322.43 55.543C323.542 55.543 324.49 55.4062 325.274 55.1328C326.058 54.8594 326.66 54.4583 327.079 53.9297C327.516 53.401 327.735 52.7812 327.735 52.0703V52.043C327.735 51.1862 327.443 50.4935 326.86 49.9648C326.277 49.418 325.229 48.9714 323.716 48.625L318.903 47.5586C317.062 47.1393 315.522 46.5651 314.282 45.8359C313.042 45.1068 312.113 44.2044 311.493 43.1289C310.873 42.0352 310.563 40.7682 310.563 39.3281V39.3008C310.563 37.5326 311.046 35.9831 312.012 34.6523C312.979 33.3216 314.337 32.2826 316.087 31.5352C317.837 30.7878 319.869 30.4141 322.184 30.4141C324.591 30.4141 326.651 30.8151 328.364 31.6172C330.078 32.4193 331.399 33.4948 332.329 34.8438C333.277 36.1927 333.787 37.7057 333.86 39.3828L333.887 39.6836H327.544L327.516 39.4648C327.371 38.2982 326.842 37.3411 325.93 36.5938C325.019 35.8281 323.77 35.4453 322.184 35.4453C321.182 35.4453 320.307 35.5911 319.559 35.8828C318.83 36.1745 318.265 36.5846 317.864 37.1133C317.481 37.6419 317.29 38.2617 317.29 38.9727V39C317.29 39.5469 317.427 40.0391 317.7 40.4766C317.973 40.9141 318.411 41.2969 319.012 41.625C319.614 41.9349 320.416 42.2083 321.419 42.4453L326.231 43.5117C329.239 44.1862 331.381 45.1523 332.657 46.4102C333.933 47.6497 334.571 49.3177 334.571 51.4141V51.4414C334.571 53.2643 334.052 54.8685 333.012 56.2539C331.973 57.6211 330.533 58.6875 328.692 59.4531C326.869 60.2005 324.773 60.5742 322.403 60.5742ZM349.861 60.5742C346.962 60.5742 344.465 59.9635 342.369 58.7422C340.291 57.5208 338.696 55.7891 337.584 53.5469C336.472 51.3047 335.916 48.6523 335.916 45.5898V45.5625C335.916 42.5182 336.472 39.8659 337.584 37.6055C338.714 35.3268 340.291 33.5586 342.314 32.3008C344.356 31.043 346.762 30.4141 349.533 30.4141C352.285 30.4141 354.664 31.0247 356.67 32.2461C358.693 33.4492 360.242 35.1445 361.318 37.332C362.412 39.5195 362.959 42.0716 362.959 44.9883V47.1758H339.279V42.6367H359.705L356.423 46.875V44.25C356.423 42.3542 356.132 40.7773 355.548 39.5195C354.965 38.2617 354.163 37.3229 353.142 36.7031C352.121 36.0651 350.946 35.7461 349.615 35.7461C348.266 35.7461 347.063 36.0742 346.005 36.7305C344.966 37.3685 344.146 38.3255 343.545 39.6016C342.961 40.8776 342.67 42.4271 342.67 44.25V46.875C342.67 48.6432 342.961 50.1562 343.545 51.4141C344.146 52.6536 344.994 53.6107 346.087 54.2852C347.181 54.9414 348.485 55.2695 349.998 55.2695C351.128 55.2695 352.121 55.0964 352.978 54.75C353.835 54.3854 354.537 53.9206 355.084 53.3555C355.649 52.7904 356.041 52.1797 356.259 51.5234L356.314 51.332H362.658L362.603 51.6328C362.366 52.7448 361.929 53.8385 361.291 54.9141C360.653 55.9714 359.796 56.9284 358.72 57.7852C357.645 58.6419 356.369 59.3255 354.892 59.8359C353.416 60.3281 351.739 60.5742 349.861 60.5742Z" fill="white"/>
<path d="M114.997 78.123C114.651 78.123 114.332 78.0729 114.04 77.9727C113.748 77.8678 113.489 77.7197 113.261 77.5283C113.037 77.3324 112.855 77.0999 112.714 76.8311H112.598V78H111.142V67.6709H112.598V71.752H112.714C112.846 71.4831 113.026 71.2529 113.254 71.0615C113.482 70.8701 113.744 70.722 114.04 70.6172C114.336 70.5078 114.655 70.4531 114.997 70.4531C115.621 70.4531 116.164 70.6104 116.624 70.9248C117.084 71.2347 117.44 71.6768 117.69 72.251C117.946 72.8206 118.073 73.4974 118.073 74.2812V74.2949C118.073 75.0742 117.946 75.751 117.69 76.3252C117.44 76.8994 117.084 77.3438 116.624 77.6582C116.164 77.9681 115.621 78.123 114.997 78.123ZM114.587 76.8721C115.006 76.8721 115.364 76.7695 115.66 76.5645C115.956 76.3548 116.184 76.0586 116.344 75.6758C116.503 75.2884 116.583 74.8281 116.583 74.2949V74.2812C116.583 73.748 116.503 73.29 116.344 72.9072C116.184 72.5199 115.956 72.2236 115.66 72.0186C115.364 71.8089 115.006 71.7041 114.587 71.7041C114.172 71.7041 113.814 71.8089 113.514 72.0186C113.213 72.2282 112.98 72.5244 112.816 72.9072C112.652 73.29 112.57 73.748 112.57 74.2812V74.2949C112.57 74.8236 112.65 75.2816 112.81 75.6689C112.974 76.0563 113.206 76.3548 113.507 76.5645C113.812 76.7695 114.172 76.8721 114.587 76.8721ZM119.481 80.6045C119.39 80.6045 119.292 80.6022 119.187 80.5977C119.082 80.5931 118.982 80.584 118.887 80.5703V79.4219C118.959 79.431 119.039 79.4378 119.126 79.4424C119.217 79.4469 119.304 79.4492 119.386 79.4492C119.732 79.4492 120.012 79.3672 120.226 79.2031C120.441 79.0436 120.602 78.7725 120.712 78.3896L120.828 78.0068L118.128 70.5762H119.707L121.819 77.2822L121.354 76.5234H121.922L121.464 77.2822L123.569 70.5762H125.107L122.332 78.3008C122.122 78.8887 121.892 79.349 121.641 79.6816C121.391 80.0189 121.092 80.2559 120.746 80.3926C120.4 80.5339 119.978 80.6045 119.481 80.6045ZM133.064 78.2393C132.148 78.2393 131.357 78.0296 130.692 77.6104C130.026 77.1911 129.514 76.5964 129.154 75.8262C128.794 75.056 128.614 74.14 128.614 73.0781V73.0645C128.614 71.998 128.794 71.0798 129.154 70.3096C129.514 69.5394 130.024 68.9447 130.685 68.5254C131.35 68.1061 132.141 67.8965 133.057 67.8965C133.777 67.8965 134.429 68.0378 135.012 68.3203C135.6 68.6029 136.081 68.9948 136.454 69.4961C136.828 69.9974 137.058 70.5716 137.145 71.2188L137.138 71.2598H135.648L135.641 71.2324C135.545 70.8268 135.374 70.4759 135.128 70.1797C134.887 69.8789 134.588 69.6465 134.233 69.4824C133.882 69.3184 133.49 69.2363 133.057 69.2363C132.465 69.2363 131.952 69.3936 131.519 69.708C131.086 70.0179 130.751 70.4577 130.514 71.0273C130.282 71.597 130.165 72.276 130.165 73.0645V73.0781C130.165 73.8574 130.282 74.5342 130.514 75.1084C130.751 75.6781 131.086 76.1201 131.519 76.4346C131.952 76.7445 132.467 76.8994 133.064 76.8994C133.501 76.8994 133.896 76.8265 134.246 76.6807C134.602 76.5348 134.898 76.3275 135.135 76.0586C135.377 75.7852 135.543 75.4639 135.634 75.0947L135.648 75.0605H137.145V75.1016C137.049 75.7305 136.817 76.2796 136.448 76.749C136.079 77.2184 135.605 77.5853 135.026 77.8496C134.452 78.1094 133.798 78.2393 133.064 78.2393ZM140.228 78.123C139.758 78.123 139.337 78.0342 138.963 77.8564C138.594 77.6742 138.302 77.4189 138.088 77.0908C137.874 76.7581 137.767 76.3662 137.767 75.915V75.9014C137.767 75.4593 137.874 75.0811 138.088 74.7666C138.307 74.4476 138.621 74.1992 139.031 74.0215C139.446 73.8392 139.947 73.7321 140.535 73.7002L143.27 73.5361V74.5752L140.727 74.7393C140.212 74.7666 139.834 74.8737 139.592 75.0605C139.35 75.2474 139.23 75.5072 139.23 75.8398V75.8535C139.23 76.1999 139.36 76.471 139.619 76.667C139.884 76.8584 140.216 76.9541 140.617 76.9541C140.991 76.9541 141.321 76.8789 141.609 76.7285C141.9 76.5781 142.128 76.3753 142.292 76.1201C142.461 75.8649 142.545 75.5778 142.545 75.2588V72.9209C142.545 72.5107 142.418 72.1963 142.162 71.9775C141.907 71.7588 141.527 71.6494 141.021 71.6494C140.606 71.6494 140.266 71.7223 140.002 71.8682C139.742 72.014 139.567 72.2191 139.476 72.4834L139.469 72.5107H138.061L138.068 72.4561C138.127 72.0505 138.289 71.6973 138.553 71.3965C138.817 71.0957 139.166 70.861 139.599 70.6924C140.032 70.5238 140.529 70.4395 141.089 70.4395C141.709 70.4395 142.235 70.5397 142.668 70.7402C143.101 70.9362 143.429 71.221 143.653 71.5947C143.88 71.9639 143.994 72.4059 143.994 72.9209V78H142.545V76.9473H142.429C142.288 77.1934 142.108 77.4053 141.889 77.583C141.67 77.7607 141.422 77.8952 141.144 77.9863C140.866 78.0775 140.56 78.123 140.228 78.123ZM145.3 78V70.5762H146.756V71.6973H146.872C147.004 71.3008 147.237 70.9954 147.569 70.7812C147.907 70.5625 148.321 70.4531 148.813 70.4531C148.937 70.4531 149.057 70.46 149.176 70.4736C149.294 70.4873 149.39 70.501 149.463 70.5146V71.8682C149.331 71.8408 149.199 71.8203 149.066 71.8066C148.939 71.793 148.807 71.7861 148.67 71.7861C148.292 71.7861 147.959 71.859 147.672 72.0049C147.385 72.1507 147.159 72.3558 146.995 72.6201C146.836 72.8844 146.756 73.1943 146.756 73.5498V78H145.3ZM150.112 78V70.5762H151.568V78H150.112ZM150.85 69.2432C150.6 69.2432 150.383 69.1543 150.201 68.9766C150.019 68.7943 149.928 68.5778 149.928 68.3271C149.928 68.0719 150.019 67.8555 150.201 67.6777C150.383 67.5 150.6 67.4111 150.85 67.4111C151.106 67.4111 151.322 67.5 151.5 67.6777C151.678 67.8555 151.766 68.0719 151.766 68.3271C151.766 68.5778 151.678 68.7943 151.5 68.9766C151.322 69.1543 151.106 69.2432 150.85 69.2432ZM152.942 78V70.5762H154.398V71.7041H154.514C154.697 71.3076 154.965 70.9977 155.321 70.7744C155.676 70.5511 156.123 70.4395 156.661 70.4395C157.495 70.4395 158.133 70.6787 158.575 71.1572C159.017 71.6312 159.238 72.3102 159.238 73.1943V78H157.782V73.543C157.782 72.9186 157.65 72.4538 157.385 72.1484C157.126 71.8431 156.722 71.6904 156.175 71.6904C155.811 71.6904 155.496 71.7702 155.232 71.9297C154.968 72.0892 154.763 72.3148 154.617 72.6064C154.471 72.8936 154.398 73.2399 154.398 73.6455V78H152.942ZM163.654 80.6113C163.025 80.6113 162.48 80.5247 162.02 80.3516C161.56 80.1829 161.195 79.9437 160.926 79.6338C160.657 79.3239 160.493 78.9639 160.434 78.5537L160.441 78.54H161.924L161.931 78.5537C161.99 78.8135 162.168 79.0254 162.464 79.1895C162.765 79.3535 163.166 79.4355 163.667 79.4355C164.283 79.4355 164.763 79.2965 165.11 79.0186C165.456 78.7406 165.629 78.3486 165.629 77.8428V76.3799H165.513C165.367 76.6488 165.18 76.8789 164.953 77.0703C164.725 77.2572 164.465 77.3984 164.173 77.4941C163.882 77.5898 163.565 77.6377 163.223 77.6377C162.59 77.6377 162.043 77.4873 161.582 77.1865C161.122 76.8812 160.767 76.4619 160.516 75.9287C160.27 75.391 160.147 74.7734 160.147 74.0762V74.0625C160.147 73.3561 160.272 72.7318 160.523 72.1895C160.774 71.6471 161.129 71.2233 161.589 70.918C162.054 70.6081 162.608 70.4531 163.25 70.4531C163.597 70.4531 163.916 70.5078 164.207 70.6172C164.499 70.7266 164.757 70.8815 164.98 71.082C165.203 71.2826 165.388 71.5218 165.534 71.7998H165.616V70.5762H167.079V77.8564C167.079 78.417 166.94 78.9023 166.662 79.3125C166.384 79.7272 165.987 80.0462 165.472 80.2695C164.957 80.4974 164.351 80.6113 163.654 80.6113ZM163.626 76.4209C164.05 76.4209 164.412 76.3229 164.713 76.127C165.014 75.9264 165.246 75.6507 165.411 75.2998C165.575 74.9443 165.657 74.5342 165.657 74.0693V74.0557C165.657 73.5954 165.575 73.1875 165.411 72.832C165.246 72.4766 165.014 72.1986 164.713 71.998C164.412 71.793 164.05 71.6904 163.626 71.6904C163.203 71.6904 162.843 71.793 162.546 71.998C162.25 72.1986 162.024 72.4766 161.87 72.832C161.715 73.1875 161.637 73.5954 161.637 74.0557V74.0693C161.637 74.5342 161.715 74.9443 161.87 75.2998C162.024 75.6507 162.25 75.9264 162.546 76.127C162.843 76.3229 163.203 76.4209 163.626 76.4209ZM174.133 78V69.4414H171.022V68.1357H178.747V69.4414H175.637V78H174.133ZM178.713 78V70.5762H180.169V71.6973H180.285C180.417 71.3008 180.65 70.9954 180.982 70.7812C181.319 70.5625 181.734 70.4531 182.226 70.4531C182.349 70.4531 182.47 70.46 182.589 70.4736C182.707 70.4873 182.803 70.501 182.876 70.5146V71.8682C182.744 71.8408 182.611 71.8203 182.479 71.8066C182.352 71.793 182.22 71.7861 182.083 71.7861C181.705 71.7861 181.372 71.859 181.085 72.0049C180.798 72.1507 180.572 72.3558 180.408 72.6201C180.248 72.8844 180.169 73.1943 180.169 73.5498V78H178.713ZM185.494 78.123C185.024 78.123 184.603 78.0342 184.229 77.8564C183.86 77.6742 183.568 77.4189 183.354 77.0908C183.14 76.7581 183.033 76.3662 183.033 75.915V75.9014C183.033 75.4593 183.14 75.0811 183.354 74.7666C183.573 74.4476 183.887 74.1992 184.297 74.0215C184.712 73.8392 185.213 73.7321 185.801 73.7002L188.536 73.5361V74.5752L185.993 74.7393C185.478 74.7666 185.1 74.8737 184.858 75.0605C184.616 75.2474 184.496 75.5072 184.496 75.8398V75.8535C184.496 76.1999 184.626 76.471 184.885 76.667C185.15 76.8584 185.482 76.9541 185.883 76.9541C186.257 76.9541 186.588 76.8789 186.875 76.7285C187.166 76.5781 187.394 76.3753 187.558 76.1201C187.727 75.8649 187.811 75.5778 187.811 75.2588V72.9209C187.811 72.5107 187.684 72.1963 187.428 71.9775C187.173 71.7588 186.793 71.6494 186.287 71.6494C185.872 71.6494 185.532 71.7223 185.268 71.8682C185.008 72.014 184.833 72.2191 184.742 72.4834L184.735 72.5107H183.327L183.334 72.4561C183.393 72.0505 183.555 71.6973 183.819 71.3965C184.083 71.0957 184.432 70.861 184.865 70.6924C185.298 70.5238 185.795 70.4395 186.355 70.4395C186.975 70.4395 187.501 70.5397 187.934 70.7402C188.367 70.9362 188.695 71.221 188.919 71.5947C189.146 71.9639 189.26 72.4059 189.26 72.9209V78H187.811V76.9473H187.695C187.554 77.1934 187.374 77.4053 187.155 77.583C186.936 77.7607 186.688 77.8952 186.41 77.9863C186.132 78.0775 185.826 78.123 185.494 78.123ZM190.566 78V70.5762H192.022V71.7041H192.138C192.32 71.3076 192.589 70.9977 192.945 70.7744C193.3 70.5511 193.747 70.4395 194.285 70.4395C195.119 70.4395 195.757 70.6787 196.199 71.1572C196.641 71.6312 196.862 72.3102 196.862 73.1943V78H195.406V73.543C195.406 72.9186 195.274 72.4538 195.009 72.1484C194.749 71.8431 194.346 71.6904 193.799 71.6904C193.435 71.6904 193.12 71.7702 192.856 71.9297C192.592 72.0892 192.386 72.3148 192.241 72.6064C192.095 72.8936 192.022 73.2399 192.022 73.6455V78H190.566ZM200.826 78.1436C200.234 78.1436 199.717 78.057 199.275 77.8838C198.837 77.7061 198.488 77.4622 198.229 77.1523C197.974 76.8379 197.821 76.4756 197.771 76.0654V76.0518H199.24V76.0654C199.336 76.3434 199.518 76.5713 199.787 76.749C200.061 76.9222 200.418 77.0088 200.861 77.0088C201.17 77.0088 201.442 76.9655 201.674 76.8789C201.906 76.7878 202.089 76.6647 202.221 76.5098C202.353 76.3548 202.419 76.1748 202.419 75.9697V75.9561C202.419 75.7236 202.326 75.5277 202.139 75.3682C201.952 75.2041 201.642 75.0719 201.209 74.9717L200.027 74.7051C199.562 74.5957 199.177 74.4521 198.871 74.2744C198.571 74.0921 198.345 73.8688 198.195 73.6045C198.049 73.3356 197.976 73.0212 197.976 72.6611V72.6543C197.976 72.2214 198.099 71.8385 198.345 71.5059C198.591 71.1732 198.931 70.9134 199.363 70.7266C199.801 70.5352 200.298 70.4395 200.854 70.4395C201.414 70.4395 201.904 70.526 202.323 70.6992C202.743 70.8724 203.075 71.1139 203.321 71.4238C203.568 71.7292 203.713 72.0846 203.759 72.4902V72.4971H202.358V72.4834C202.289 72.2236 202.125 72.0072 201.865 71.834C201.606 71.6562 201.266 71.5674 200.847 71.5674C200.573 71.5674 200.332 71.6107 200.122 71.6973C199.913 71.7793 199.746 71.8955 199.623 72.0459C199.5 72.1963 199.439 72.374 199.439 72.5791V72.5859C199.439 72.7409 199.477 72.8776 199.555 72.9961C199.637 73.1146 199.765 73.2194 199.938 73.3105C200.111 73.3971 200.336 73.4746 200.614 73.543L201.79 73.8096C202.501 73.9782 203.03 74.222 203.376 74.541C203.723 74.86 203.896 75.2884 203.896 75.8262V75.8398C203.896 76.2956 203.761 76.6966 203.492 77.043C203.228 77.3893 202.863 77.6605 202.399 77.8564C201.938 78.0479 201.414 78.1436 200.826 78.1436ZM204.9 78V70.5762H206.356V78H204.9ZM205.639 69.2432C205.388 69.2432 205.172 69.1543 204.989 68.9766C204.807 68.7943 204.716 68.5778 204.716 68.3271C204.716 68.0719 204.807 67.8555 204.989 67.6777C205.172 67.5 205.388 67.4111 205.639 67.4111C205.894 67.4111 206.11 67.5 206.288 67.6777C206.466 67.8555 206.555 68.0719 206.555 68.3271C206.555 68.5778 206.466 68.7943 206.288 68.9766C206.11 69.1543 205.894 69.2432 205.639 69.2432ZM210.512 78.0479C209.706 78.0479 209.123 77.8929 208.762 77.583C208.402 77.2686 208.222 76.7559 208.222 76.0449V71.7383H207.06V70.5762H208.222V68.71H209.713V70.5762H211.305V71.7383H209.713V75.6963C209.713 76.0973 209.792 76.3867 209.952 76.5645C210.116 76.7422 210.38 76.8311 210.745 76.8311C210.859 76.8311 210.955 76.8288 211.032 76.8242C211.11 76.8197 211.201 76.8128 211.305 76.8037V77.9727C211.192 77.9909 211.066 78.0068 210.929 78.0205C210.797 78.0387 210.658 78.0479 210.512 78.0479ZM212.269 78V70.5762H213.725V78H212.269ZM213.007 69.2432C212.757 69.2432 212.54 69.1543 212.358 68.9766C212.176 68.7943 212.085 68.5778 212.085 68.3271C212.085 68.0719 212.176 67.8555 212.358 67.6777C212.54 67.5 212.757 67.4111 213.007 67.4111C213.263 67.4111 213.479 67.5 213.657 67.6777C213.835 67.8555 213.923 68.0719 213.923 68.3271C213.923 68.5778 213.835 68.7943 213.657 68.9766C213.479 69.1543 213.263 69.2432 213.007 69.2432ZM218.23 78.1436C217.51 78.1436 216.888 77.9886 216.364 77.6787C215.84 77.3688 215.434 76.9268 215.147 76.3525C214.864 75.7738 214.723 75.0879 214.723 74.2949V74.2812C214.723 73.4837 214.864 72.7979 215.147 72.2236C215.434 71.6494 215.84 71.2096 216.364 70.9043C216.888 70.5944 217.51 70.4395 218.23 70.4395C218.954 70.4395 219.577 70.5944 220.096 70.9043C220.62 71.2096 221.024 71.6494 221.306 72.2236C221.589 72.7979 221.73 73.4837 221.73 74.2812V74.2949C221.73 75.0879 221.589 75.7738 221.306 76.3525C221.024 76.9268 220.62 77.3688 220.096 77.6787C219.577 77.9886 218.954 78.1436 218.23 78.1436ZM218.23 76.9131C218.658 76.9131 219.021 76.8105 219.317 76.6055C219.618 76.3958 219.845 76.0973 220 75.71C220.16 75.318 220.24 74.8464 220.24 74.2949V74.2812C220.24 73.7298 220.16 73.2604 220 72.873C219.841 72.4811 219.613 72.1826 219.317 71.9775C219.021 71.7679 218.658 71.6631 218.23 71.6631C217.801 71.6631 217.437 71.7679 217.136 71.9775C216.84 72.1826 216.612 72.4811 216.453 72.873C216.298 73.2604 216.22 73.7298 216.22 74.2812V74.2949C216.22 74.8464 216.298 75.318 216.453 75.71C216.612 76.0973 216.84 76.3958 217.136 76.6055C217.437 76.8105 217.801 76.9131 218.23 76.9131ZM222.707 78V70.5762H224.163V71.7041H224.279C224.462 71.3076 224.731 70.9977 225.086 70.7744C225.442 70.5511 225.888 70.4395 226.426 70.4395C227.26 70.4395 227.898 70.6787 228.34 71.1572C228.782 71.6312 229.003 72.3102 229.003 73.1943V78H227.547V73.543C227.547 72.9186 227.415 72.4538 227.151 72.1484C226.891 71.8431 226.488 71.6904 225.941 71.6904C225.576 71.6904 225.262 71.7702 224.997 71.9297C224.733 72.0892 224.528 72.3148 224.382 72.6064C224.236 72.8936 224.163 73.2399 224.163 73.6455V78H222.707ZM232.968 78.1436C232.375 78.1436 231.858 78.057 231.416 77.8838C230.979 77.7061 230.63 77.4622 230.37 77.1523C230.115 76.8379 229.962 76.4756 229.912 76.0654V76.0518H231.382V76.0654C231.478 76.3434 231.66 76.5713 231.929 76.749C232.202 76.9222 232.56 77.0088 233.002 77.0088C233.312 77.0088 233.583 76.9655 233.815 76.8789C234.048 76.7878 234.23 76.6647 234.362 76.5098C234.494 76.3548 234.561 76.1748 234.561 75.9697V75.9561C234.561 75.7236 234.467 75.5277 234.28 75.3682C234.093 75.2041 233.784 75.0719 233.351 74.9717L232.168 74.7051C231.703 74.5957 231.318 74.4521 231.013 74.2744C230.712 74.0921 230.486 73.8688 230.336 73.6045C230.19 73.3356 230.117 73.0212 230.117 72.6611V72.6543C230.117 72.2214 230.24 71.8385 230.486 71.5059C230.732 71.1732 231.072 70.9134 231.505 70.7266C231.942 70.5352 232.439 70.4395 232.995 70.4395C233.556 70.4395 234.046 70.526 234.465 70.6992C234.884 70.8724 235.217 71.1139 235.463 71.4238C235.709 71.7292 235.855 72.0846 235.9 72.4902V72.4971H234.499V72.4834C234.431 72.2236 234.267 72.0072 234.007 71.834C233.747 71.6562 233.408 71.5674 232.988 71.5674C232.715 71.5674 232.473 71.6107 232.264 71.6973C232.054 71.7793 231.888 71.8955 231.765 72.0459C231.642 72.1963 231.58 72.374 231.58 72.5791V72.5859C231.58 72.7409 231.619 72.8776 231.696 72.9961C231.778 73.1146 231.906 73.2194 232.079 73.3105C232.252 73.3971 232.478 73.4746 232.756 73.543L233.932 73.8096C234.643 73.9782 235.171 74.222 235.518 74.541C235.864 74.86 236.037 75.2884 236.037 75.8262V75.8398C236.037 76.2956 235.903 76.6966 235.634 77.043C235.369 77.3893 235.005 77.6605 234.54 77.8564C234.08 78.0479 233.556 78.1436 232.968 78.1436Z" fill="white"/>
</svg>
